# xmcd
#
# Track frame offsets: 
#        150
#        15735
#        34871
#        52625
#        71255
#        84115
#        99334
#        109984
#        131007
#        144241
#
# Disc length: 2089 seconds
#
# Revision: 0
# Processed by: cddbd v1.5.2PL0 Copyright (c) Steve Scherf et al.
# Submitted via: ExactAudioCopyFreeDBPlugin 1.0
#
DISCID=7208270a
DTITLE=Davis Coen - Hard Luck Cafe
DYEAR=2012
DGENRE=Blues
TTITLE0=Hard Luck Cafe
TTITLE1=Burnin In My Heart
TTITLE2=Good Conversation
TTITLE3=Mile After Mile
TTITLE4=AAA Whiskey
TTITLE5=Brand New Version Of The Same Old Thing
TTITLE6=Lost Shirt Blues
TTITLE7=It Can All Work Out
TTITLE8=Anelle
TTITLE9=Grateful Arms
EXTD=
EXTT0=
EXTT1=
EXTT2=
EXTT3=
EXTT4=
EXTT5=
EXTT6=
EXTT7=
EXTT8=
EXTT9=
PLAYORDER=
